<svg width="24" height="24" viewBox="0 0 24 24" fill="none" xmlns="http://www.w3.org/2000/svg">
<path d="M9 10L12.258 12.444C12.4598 12.5954 12.7114 12.6649 12.9624 12.6385C13.2133 12.6122 13.445 12.492 13.611 12.302L20 5" stroke="#60D920" stroke-width="2" stroke-linecap="round"/>
<path d="M21 12.0001C21 13.8806 20.411 15.7139 19.3157 17.2425C18.2203 18.7711 16.6736 19.9182 14.8929 20.5226C13.1122 21.1271 11.1868 21.1586 9.3873 20.6127C7.58776 20.0668 6.00442 18.9709 4.85967 17.4789C3.71492 15.987 3.06627 14.1739 3.00481 12.2944C2.94335 10.4149 3.47218 8.56329 4.51702 6.99974C5.56187 5.43619 7.07023 4.23921 8.83027 3.5769C10.5903 2.91459 12.5136 2.82023 14.33 3.30708" stroke="#60D920" stroke-width="2" stroke-linecap="round"/>
</svg>
